<svg width="24" height="24" viewBox="0 0 24 24" fill="none" xmlns="http://www.w3.org/2000/svg">
<path d="M12 0C18.6274 0 24 5.37258 24 12C24 18.6274 18.6274 24 12 24C5.37258 24 0 18.6274 0 12C0 5.37258 5.37258 0 12 0ZM12 1.8C6.3667 1.8 1.8 6.3667 1.8 12C1.8 17.6333 6.3667 22.2 12 22.2C17.6333 22.2 22.2 17.6333 22.2 12C22.2 6.3667 17.6333 1.8 12 1.8Z" fill="black"/>
<path d="M7.48811 8.21045L11.9994 12.9473L16.5107 8.21045L18.3152 9.15782L11.9994 15.7894L5.68359 9.15782L7.48811 8.21045Z" fill="black"/>
</svg>
