<?xml version="1.0" encoding="utf-8"?>
<!-- Generator: Adobe Illustrator 23.0.0, SVG Export Plug-In . SVG Version: 6.00 Build 0)  -->
<svg version="1.1" id="Layer_1" xmlns="http://www.w3.org/2000/svg" xmlns:xlink="http://www.w3.org/1999/xlink" x="0px" y="0px"
	 viewBox="0 0 19.5 18.5" style="enable-background:new 0 0 19.5 18.5;" xml:space="preserve">
<path d="M19.4,9c0-0.1-0.1-0.2-0.2-0.2l-8.5-8.5c-0.3-0.3-0.8-0.3-1.1,0S9.4,1,9.7,1.3l7.2,7.2H0.8C0.3,8.5,0,8.8,0,9.3
	S0.3,10,0.8,10h16.2l-7.2,7.2c-0.3,0.3-0.3,0.8,0,1.1c0.1,0.1,0.3,0.2,0.5,0.2s0.4-0.1,0.5-0.2l8.5-8.5c0.1-0.1,0.1-0.2,0.2-0.2
	c0-0.1,0.1-0.2,0.1-0.3S19.5,9.1,19.4,9z"/>
</svg>
