<svg width="12" height="24" viewBox="0 0 12 24" fill="none" xmlns="http://www.w3.org/2000/svg">
<path d="M1.10954 18.712L1.10943 18.7118C0.342993 17.6303 0.260015 16.3949 0.251074 15.0822C1.03162 15.556 1.79187 16.028 2.46773 16.5161C3.25037 17.0813 3.90402 17.6571 4.33892 18.2653L4.69318 18.8722L5.15909 19.6705V18.7462V16.235V16.0941L5.03862 16.0211C3.39329 15.0244 1.89247 14.0362 1.10954 12.9295L1.10943 12.9293C0.342993 11.8479 0.260015 10.6124 0.251074 9.29972C1.03162 9.77353 1.79187 10.2456 2.46773 10.7337C3.24972 11.2984 3.90293 11.8736 4.33783 12.4813L4.69129 13.1085L5.15909 13.9386V12.9858V10.4525V10.3117L5.03862 10.2387C3.39329 9.24196 1.89247 8.2537 1.10954 7.14703L1.10943 7.14687C0.342993 6.06538 0.260015 4.82992 0.251074 3.51725C1.03162 3.99106 1.79187 4.46311 2.46773 4.95118C3.25408 5.51906 3.91021 6.09757 4.34509 6.70899C4.44634 6.85211 4.53789 7.00606 4.6196 7.17107L5.0849 6.9946C4.90267 6.32361 4.78783 5.70703 4.77726 5.07467C4.76816 3.63651 5.32732 2.15372 5.96662 0.621027C6.63198 2.08101 7.21335 3.505 7.22272 4.93601L7.22276 4.9383C7.23318 5.60133 7.11851 6.28127 6.92672 6.959L7.38484 7.15022C7.47283 6.99475 7.55423 6.85132 7.65491 6.70898C8.08979 6.09757 8.74592 5.51906 9.53227 4.95118C10.2081 4.46311 10.9684 3.99106 11.7489 3.51725C11.74 4.82992 11.657 6.06538 10.8906 7.14687L10.8905 7.14703C10.1075 8.2537 8.60671 9.24196 6.96138 10.2387L6.84091 10.3117V10.4525V12.9858V13.9386L7.30871 13.1085L7.66217 12.4813C8.09707 11.8736 8.75028 11.2984 9.53227 10.7337C10.2081 10.2456 10.9684 9.77353 11.7489 9.29972C11.74 10.6124 11.657 11.8479 10.8906 12.9293L10.8905 12.9295C10.1075 14.0362 8.60671 15.0244 6.96138 16.0211L6.84091 16.0941V16.235V18.7462V19.6705L7.30682 18.8722L7.66108 18.2653C8.09598 17.6571 8.74963 17.0813 9.53227 16.5161C10.2081 16.028 10.9684 15.556 11.7489 15.0822C11.74 16.3949 11.657 17.6303 10.8906 18.7118L10.8905 18.712C10.1075 19.8186 8.60671 20.8069 6.96138 21.8036L6.84091 21.8766V22.0174V23.75H5.15909V22.0174V21.8766L5.03862 21.8036C3.39329 20.8069 1.89247 19.8186 1.10954 18.712Z" stroke="black" stroke-width="0.5"/>
</svg>
