<svg width="1440" height="10708" viewBox="0 0 1440 10708" fill="none" xmlns="http://www.w3.org/2000/svg">
<g clip-path="url(#clip0_266_1735)">
<rect width="1440" height="10708" fill="#D6FFDD"/>
<g filter="url(#filter0_bf_266_1735)">
<path fill-rule="evenodd" clip-rule="evenodd" d="M1213.59 13704.6C974.177 13797.1 758.033 13146.1 643.077 11802.6C550.631 10722.1 540.467 9390.59 598.645 8092.26C598.645 8092.26 409.768 343.819 1155.46 6823.11C1901.16 13302.4 1482.52 3162.3 1482.52 3162.3C1728.18 3034.51 1951.32 3684.28 2068.79 5057.23C2206.35 6664.93 2161.73 8828.44 1980.85 10611.5L1597.22 12158L1213.59 13704.6Z" fill="url(#paint0_linear_266_1735)"/>
<path fill-rule="evenodd" clip-rule="evenodd" d="M1213.59 13704.6C974.177 13797.1 758.033 13146.1 643.077 11802.6C550.631 10722.1 540.467 9390.59 598.645 8092.26C598.645 8092.26 409.768 343.819 1155.46 6823.11C1901.16 13302.4 1482.52 3162.3 1482.52 3162.3C1728.18 3034.51 1951.32 3684.28 2068.79 5057.23C2206.35 6664.93 2161.73 8828.44 1980.85 10611.5L1597.22 12158L1213.59 13704.6Z" fill="url(#paint1_radial_266_1735)"/>
<path d="M1007.98 4363.23C803.68 5329.83 661.402 6691.75 598.645 8092.26C598.645 8092.26 409.768 343.819 1155.46 6823.11C1901.16 13302.4 1482.52 3162.3 1482.52 3162.3C1326.32 3243.56 1161.01 3639.21 1007.98 4363.23Z" fill="url(#paint2_linear_266_1735)"/>
<path d="M1007.98 4363.23C803.68 5329.83 661.402 6691.75 598.645 8092.26C598.645 8092.26 409.768 343.819 1155.46 6823.11C1901.16 13302.4 1482.52 3162.3 1482.52 3162.3C1326.32 3243.56 1161.01 3639.21 1007.98 4363.23Z" fill="url(#paint3_radial_266_1735)"/>
<path d="M1213.59 13704.6C1374.39 13642.5 1545.7 13245 1703.88 12496.6C1815.77 11967.2 1909.05 11319.3 1980.85 10611.5L1597.22 12158L1213.59 13704.6Z" fill="url(#paint4_linear_266_1735)"/>
<path d="M1213.59 13704.6C1374.39 13642.5 1545.7 13245 1703.88 12496.6C1815.77 11967.2 1909.05 11319.3 1980.85 10611.5L1597.22 12158L1213.59 13704.6Z" fill="url(#paint5_radial_266_1735)"/>
</g>
<g filter="url(#filter1_bf_266_1735)">
<path d="M1585.41 10481.5C1677.17 9621.67 1752.23 12717.3 1692.14 11351.5C1657.76 10569.8 1270.53 9236.94 1134.77 5943.27C1028.36 5197.12 1163.53 7039.68 1087.2 6564.44C908.722 5453.25 931.979 5626.97 734.491 5389.11C537.002 5151.25 367.244 5447.22 260.708 6215.14C154.172 6983.06 119.109 8163.47 162.848 9509.57C206.586 10855.7 325.742 12263.2 495.401 13438C665.059 14612.7 872.085 15463.7 1073.19 15812.9C1274.3 16162.2 1453.92 15982.7 1574.5 15312L935.826 10648.1L1585.41 10481.5Z" fill="url(#paint6_radial_266_1735)"/>
</g>
<g style="mix-blend-mode:screen" filter="url(#filter2_bf_266_1735)">
<path d="M882.624 4241.16C678.03 1149.02 -375.891 4831.9 409.048 745.651C468.304 -494.602 719.016 -1284.49 1120.52 -223.772C1522.02 836.942 1799.46 2702.25 1740.21 3942.5C1555.16 2954.76 1284.12 5301.87 882.624 4241.16Z" fill="url(#paint7_linear_266_1735)"/>
<path d="M882.624 4241.16C678.03 1149.02 -375.891 4831.9 409.048 745.651C468.304 -494.602 719.016 -1284.49 1120.52 -223.772C1522.02 836.942 1799.46 2702.25 1740.21 3942.5C1555.16 2954.76 1284.12 5301.87 882.624 4241.16Z" fill="url(#paint8_radial_266_1735)"/>
</g>
<g style="mix-blend-mode:color-dodge" opacity="0.4" filter="url(#filter3_bf_266_1735)">
<path d="M1421.37 1917.16C1421.37 1246.9 1298.85 602.597 1079.43 118.949C860.004 -364.698 560.666 -650.24 243.998 -677.974C-72.6689 -705.707 -382.147 -473.486 -619.73 -29.863C-857.312 413.76 -1004.6 1034.44 -1030.81 1702.4C-1057.02 2370.36 -960.107 3033.88 -760.345 3554.24C-560.582 4074.6 -273.433 4411.51 41.0658 4494.52C355.564 4577.53 673.062 4400.22 927.176 3999.66C1181.29 3599.1 1352.35 3006.3 1404.58 2345.21L193.178 1917.16L1421.37 1917.16Z" fill="url(#paint9_linear_266_1735)"/>
</g>
</g>
<defs>
<filter id="filter0_bf_266_1735" x="424.78" y="3008.79" width="1862.31" height="10842.2" filterUnits="userSpaceOnUse" color-interpolation-filters="sRGB">
<feFlood flood-opacity="0" result="BackgroundImageFix"/>
<feGaussianBlur in="BackgroundImageFix" stdDeviation="68.8657"/>
<feComposite in2="SourceAlpha" operator="in" result="effect1_backgroundBlur_266_1735"/>
<feBlend mode="normal" in="SourceGraphic" in2="effect1_backgroundBlur_266_1735" result="shape"/>
<feGaussianBlur stdDeviation="68.8657" result="effect2_foregroundBlur_266_1735"/>
</filter>
<filter id="filter1_bf_266_1735" x="6.74847" y="5171.19" width="1844.7" height="10953.9" filterUnits="userSpaceOnUse" color-interpolation-filters="sRGB">
<feFlood flood-opacity="0" result="BackgroundImageFix"/>
<feGaussianBlur in="BackgroundImageFix" stdDeviation="68.8658"/>
<feComposite in2="SourceAlpha" operator="in" result="effect1_backgroundBlur_266_1735"/>
<feBlend mode="normal" in="SourceGraphic" in2="effect1_backgroundBlur_266_1735" result="shape"/>
<feGaussianBlur stdDeviation="68.8658" result="effect2_foregroundBlur_266_1735"/>
</filter>
<filter id="filter2_bf_266_1735" x="-91.6033" y="-933.645" width="2053.78" height="5670.62" filterUnits="userSpaceOnUse" color-interpolation-filters="sRGB">
<feFlood flood-opacity="0" result="BackgroundImageFix"/>
<feGaussianBlur in="BackgroundImageFix" stdDeviation="68.8657"/>
<feComposite in2="SourceAlpha" operator="in" result="effect1_backgroundBlur_266_1735"/>
<feBlend mode="normal" in="SourceGraphic" in2="effect1_backgroundBlur_266_1735" result="shape"/>
<feGaussianBlur stdDeviation="107" result="effect2_foregroundBlur_266_1735"/>
</filter>
<filter id="filter3_bf_266_1735" x="-1172.75" y="-817.932" width="2731.85" height="5470.19" filterUnits="userSpaceOnUse" color-interpolation-filters="sRGB">
<feFlood flood-opacity="0" result="BackgroundImageFix"/>
<feGaussianBlur in="BackgroundImageFix" stdDeviation="68.8657"/>
<feComposite in2="SourceAlpha" operator="in" result="effect1_backgroundBlur_266_1735"/>
<feBlend mode="normal" in="SourceGraphic" in2="effect1_backgroundBlur_266_1735" result="shape"/>
<feGaussianBlur stdDeviation="68.8657" result="effect2_foregroundBlur_266_1735"/>
</filter>
<linearGradient id="paint0_linear_266_1735" x1="2068.79" y1="5057.24" x2="80.4919" y2="5227.36" gradientUnits="userSpaceOnUse">
<stop stop-color="white"/>
<stop offset="1" stop-color="white" stop-opacity="0"/>
</linearGradient>
<radialGradient id="paint1_radial_266_1735" cx="0" cy="0" r="1" gradientUnits="userSpaceOnUse" gradientTransform="translate(1355.93 8429.89) rotate(101.935) scale(3720.92 1275.21)">
<stop offset="0.0619708" stop-color="#EBFFEE"/>
<stop offset="1" stop-color="#BCFFC9"/>
</radialGradient>
<linearGradient id="paint2_linear_266_1735" x1="2068.79" y1="5057.24" x2="80.4919" y2="5227.36" gradientUnits="userSpaceOnUse">
<stop stop-color="white"/>
<stop offset="1" stop-color="white" stop-opacity="0"/>
</linearGradient>
<radialGradient id="paint3_radial_266_1735" cx="0" cy="0" r="1" gradientUnits="userSpaceOnUse" gradientTransform="translate(1355.93 8429.89) rotate(101.935) scale(3720.92 1275.21)">
<stop offset="0.0619708" stop-color="#EBFFEE"/>
<stop offset="1" stop-color="#BCFFC9"/>
</radialGradient>
<linearGradient id="paint4_linear_266_1735" x1="2068.79" y1="5057.24" x2="80.4919" y2="5227.36" gradientUnits="userSpaceOnUse">
<stop stop-color="white"/>
<stop offset="1" stop-color="white" stop-opacity="0"/>
</linearGradient>
<radialGradient id="paint5_radial_266_1735" cx="0" cy="0" r="1" gradientUnits="userSpaceOnUse" gradientTransform="translate(1355.93 8429.89) rotate(101.935) scale(3720.92 1275.21)">
<stop offset="0.0619708" stop-color="#EBFFEE"/>
<stop offset="1" stop-color="#BCFFC9"/>
</radialGradient>
<radialGradient id="paint6_radial_266_1735" cx="0" cy="0" r="1" gradientUnits="userSpaceOnUse" gradientTransform="translate(935.826 10648.1) rotate(96.0915) scale(3351.1 1127.07)">
<stop offset="0.1875" stop-color="white"/>
<stop offset="0.942708" stop-color="white"/>
</radialGradient>
<linearGradient id="paint7_linear_266_1735" x1="1740.21" y1="3942.5" x2="106.451" y2="3864.44" gradientUnits="userSpaceOnUse">
<stop stop-color="#F4F4F4"/>
<stop offset="0.0001" stop-opacity="0.864583"/>
<stop offset="1" stop-color="white" stop-opacity="0"/>
</linearGradient>
<radialGradient id="paint8_radial_266_1735" cx="0" cy="0" r="1" gradientUnits="userSpaceOnUse" gradientTransform="translate(1013.22 2021.91) rotate(-110.733) scale(2216.66 966.431)">
<stop offset="0.192708" stop-color="#ADF9BA"/>
<stop offset="0.53125" stop-color="white"/>
<stop offset="1" stop-color="#EFE5C3"/>
</radialGradient>
<linearGradient id="paint9_linear_266_1735" x1="193.178" y1="-680.198" x2="193.178" y2="4514.52" gradientUnits="userSpaceOnUse">
<stop stop-color="#C4FFC9" stop-opacity="0.5"/>
<stop offset="1" stop-color="white" stop-opacity="0"/>
</linearGradient>
<clipPath id="clip0_266_1735">
<rect width="1440" height="10708" fill="white"/>
</clipPath>
</defs>
</svg>
