<svg width="97" height="25" viewBox="0 0 97 25" fill="none" xmlns="http://www.w3.org/2000/svg">
<path d="M13.2373 10.7748C12.5787 9.91608 11.7239 9.22763 10.7445 8.76706C9.76519 8.30649 8.68978 8.08719 7.60829 8.12751C6.54838 8.13551 5.50383 8.38175 4.55196 8.84802C3.60009 9.31429 2.76526 9.98866 2.10927 10.8212C0.999505 12.2914 0.408262 14.088 0.427987 15.9299C0.378796 18.0996 1.15386 20.2073 2.59696 21.8282C3.26825 22.5479 4.0758 23.127 4.97275 23.532C5.8697 23.937 6.83818 24.1599 7.82195 24.1875C8.80657 24.1875 12.0019 23.7231 13.4696 21.8654V21.6564C12.3607 22.5308 11.0026 23.0301 9.59147 23.0822C7.3993 23.0822 4.1064 22.2601 3.0614 16.3479H14.5378C14.5378 16.3479 15.1416 13.1852 13.2373 10.7748ZM11.5932 15.6327H3.07997C3.07997 14.4716 3.31683 8.82415 7.60829 8.82415C11.8997 8.82415 11.5932 15.6327 11.5932 15.6327Z" fill="#01390C"/>
<path d="M40.9594 10.7749C40.301 9.91588 39.4462 9.22721 38.4668 8.76661C37.4874 8.30601 36.4119 8.08689 35.3303 8.12759C34.2672 8.13214 33.2188 8.37675 32.2633 8.84317C31.3079 9.3096 30.4702 9.9858 29.8127 10.8213C28.7008 12.2904 28.1093 14.0877 28.1315 15.93C28.0801 18.0992 28.8535 20.2071 30.2958 21.8283C30.9671 22.548 31.7746 23.1271 32.6716 23.5321C33.5685 23.9371 34.537 24.1599 35.5207 24.1876C36.5054 24.1876 39.6775 23.7232 41.1684 21.8655V21.6565C40.0616 22.5313 38.7048 23.0308 37.2949 23.0823C35.0981 23.0823 31.8052 22.2602 30.7602 16.348H42.2413C42.2413 16.348 42.8543 13.1853 40.9594 10.7749ZM39.3153 15.6328H30.802C30.802 14.4717 31.0389 8.82424 35.3303 8.82424C39.6218 8.82424 39.306 15.6328 39.306 15.6328H39.3153Z" fill="#01390C"/>
<path d="M85.885 10.7753C85.2271 9.91572 84.3725 9.22664 83.393 8.76598C82.4135 8.30532 81.3376 8.08654 80.256 8.12801C79.1967 8.13604 78.1529 8.38231 77.2018 8.84861C76.2507 9.31491 75.4167 9.98928 74.7616 10.8217C73.6519 12.292 73.0606 14.0885 73.0803 15.9304C73.0313 18.0993 73.8044 20.2064 75.2446 21.8287C75.9159 22.5484 76.7235 23.1275 77.6204 23.5325C78.5174 23.9375 79.4859 24.1604 80.4696 24.188C81.4543 24.188 84.6496 23.7236 86.1219 21.8659V21.6569C85.0131 22.5313 83.655 23.0306 82.2438 23.0827C80.0516 23.0827 76.7587 22.2607 75.7091 16.3484H87.1901C87.1901 16.3484 87.7939 13.1857 85.885 10.7753ZM84.2456 15.6332H75.7323C75.7323 14.4721 75.9692 8.82466 80.256 8.82466C84.5428 8.82466 84.2456 15.6332 84.2456 15.6332Z" fill="#01390C"/>
<path d="M28.6853 8.1272L22.5965 24.2012H21.2264L14.0879 8.1272H16.9117L22.5779 21.0709L27.5521 8.1272H28.6853Z" fill="#01390C"/>
<path d="M91.86 0H89.1523V24.2015H91.86V0Z" fill="#01390C"/>
<path d="M54.7912 9.94341L52.9613 11.9962C52.9613 11.9962 51.7351 9.56722 49.8495 9.56722C47.1139 9.56722 46.7702 14.5877 46.7702 14.5877V24.2014H44.0625V8.12749H46.7702V11.8429C47.8059 9.13531 49.3618 8.09033 51.4657 8.09033C53.5697 8.09033 54.7912 9.94341 54.7912 9.94341Z" fill="#01390C"/>
<path d="M96.4265 0H93.7188V24.2015H96.4265V0Z" fill="#01390C"/>
<path d="M53.6953 13.8118L58.3397 24.2012H59.682L62.803 15.8507L66.5418 24.2012H67.8562L73.9218 8.1272H72.835L67.9073 21.0616L62.1575 8.1272H59.3708L62.2689 14.5271L59.6959 21.057L55.5345 11.7544L53.6953 13.8118Z" fill="#01390C"/>
</svg>
