<svg width="21" height="21" viewBox="0 0 21 21" fill="none" xmlns="http://www.w3.org/2000/svg">
<path d="M13.5005 0.75V9.75L18.8855 16.605C19.1478 16.9369 19.3112 17.3361 19.357 17.7567C19.4027 18.1773 19.329 18.6023 19.1441 18.9828C18.9593 19.3634 18.671 19.6842 18.3122 19.9083C17.9533 20.1324 17.5386 20.2509 17.1155 20.25H3.88551C3.46244 20.2509 3.04769 20.1324 2.68887 19.9083C2.33004 19.6842 2.04168 19.3634 1.85687 18.9828C1.67207 18.6023 1.59831 18.1773 1.64405 17.7567C1.6898 17.3361 1.8532 16.9369 2.11551 16.605L7.50051 9.75V0.75M5.25051 0.75H15.7505" stroke="black" stroke-linecap="round" stroke-linejoin="round"/>
</svg>
