<svg width="30" height="30" viewBox="0 0 30 30" fill="none" xmlns="http://www.w3.org/2000/svg">
<path d="M25.6091 21.4248L20.5279 16.8048C20.2877 16.5865 19.972 16.4701 19.6476 16.4801C19.3232 16.4901 19.0154 16.6258 18.7891 16.8586L15.7979 19.9348C15.0779 19.7973 13.6304 19.3461 12.1404 17.8598C10.6504 16.3686 10.1991 14.9173 10.0654 14.2023L13.1391 11.2098C13.3721 10.9837 13.508 10.6758 13.5181 10.3513C13.5281 10.0268 13.4115 9.71111 13.1929 9.47106L8.5741 4.39106C8.35541 4.15026 8.05145 4.00419 7.72679 3.98389C7.40214 3.96358 7.08235 4.07063 6.83535 4.28231L4.12285 6.60856C3.90674 6.82545 3.77775 7.11412 3.76035 7.41981C3.7416 7.73231 3.3841 15.1348 9.1241 20.8773C14.1316 25.8836 20.4041 26.2498 22.1316 26.2498C22.3841 26.2498 22.5391 26.2423 22.5804 26.2398C22.886 26.2227 23.1745 26.0931 23.3904 25.8761L25.7154 23.1623C25.9279 22.9161 26.0357 22.5966 26.0159 22.2719C25.996 21.9473 25.85 21.6433 25.6091 21.4248Z" fill="#01390C"/>
</svg>
