<svg width="24" height="24" viewBox="0 0 24 24" fill="none" xmlns="http://www.w3.org/2000/svg">
<path d="M22.8405 3.76131C22.8349 3.66973 22.796 3.58338 22.731 3.51859C22.666 3.45381 22.5796 3.41508 22.488 3.40975C17.7771 3.1285 14.0092 4.54412 12.408 7.18693C11.3167 8.98881 11.3608 11.1169 12.5242 13.2066C11.7032 14.1085 11.161 15.229 10.9633 16.4326L8.76111 14.2304C9.57018 12.7304 9.58705 11.1994 8.80049 9.90006C7.63612 7.97725 4.90799 6.94975 1.50018 7.14943C1.40907 7.15519 1.32319 7.19397 1.25864 7.25852C1.19409 7.32307 1.1553 7.40895 1.14955 7.50006C0.949864 10.906 1.97736 13.6341 3.90018 14.7985C4.5173 15.1773 5.22729 15.3779 5.95143 15.3779C6.75074 15.3643 7.53405 15.1516 8.23049 14.7591L10.8752 17.4066V20.2501C10.8752 20.3495 10.9147 20.4449 10.985 20.5152C11.0553 20.5856 11.1507 20.6251 11.2502 20.6251C11.3496 20.6251 11.445 20.5856 11.5153 20.5152C11.5857 20.4449 11.6252 20.3495 11.6252 20.2501V17.4854C11.6217 16.1009 12.1325 14.7645 13.0586 13.7354C14.1358 14.3316 15.2214 14.6316 16.2686 14.6316C17.2551 14.6318 18.2224 14.3589 19.0633 13.8432C21.7052 12.241 23.118 8.47318 22.8405 3.76131ZM4.2883 14.1563C2.66924 13.1776 1.78143 10.846 1.88268 7.88256C4.84611 7.78131 7.17768 8.66912 8.15643 10.2882C8.76393 11.2922 8.77424 12.4791 8.19955 13.6716L5.51455 10.9847C5.44322 10.9201 5.34976 10.8854 5.25353 10.8878C5.1573 10.8901 5.06566 10.9294 4.99759 10.9975C4.92953 11.0655 4.89024 11.1572 4.88787 11.2534C4.8855 11.3496 4.92023 11.4431 4.98486 11.5144L7.67268 14.2022C6.47924 14.7769 5.29236 14.7666 4.2883 14.1563ZM18.6742 13.2001C17.1696 14.1113 15.3846 14.0991 13.6042 13.1766L19.0155 7.76443C19.0829 7.6936 19.12 7.59922 19.1188 7.50143C19.1177 7.40365 19.0783 7.31018 19.0093 7.24097C18.9402 7.17176 18.8468 7.13227 18.749 7.13094C18.6512 7.1296 18.5568 7.16651 18.4858 7.23381L13.0736 12.646C12.1511 10.8647 12.1361 9.0835 13.0502 7.576C14.4667 5.23225 17.8389 3.96381 22.1092 4.141C22.2874 8.41131 21.0142 11.7835 18.6742 13.2001Z" fill="black"/>
</svg>
