<svg width="1440" height="5602" viewBox="0 0 1440 5602" fill="none" xmlns="http://www.w3.org/2000/svg">
<g clip-path="url(#clip0_831_36365)">
<rect width="1440" height="5602" fill="#D6FFDD"/>
<g filter="url(#filter0_bf_831_36365)">
<path fill-rule="evenodd" clip-rule="evenodd" d="M1213.59 7169.72C974.178 7218.1 758.033 6877.51 643.078 6174.63C550.631 5609.37 540.467 4912.78 598.645 4233.55C598.645 4233.55 409.768 179.872 1155.46 3569.58C1901.16 6959.28 1482.52 1654.39 1482.52 1654.39C1728.18 1587.53 1951.32 1927.47 2068.79 2645.74C2206.34 3486.82 2161.72 4618.69 1980.85 5551.49L1597.22 6360.6L1213.59 7169.72Z" fill="url(#paint0_linear_831_36365)"/>
<path fill-rule="evenodd" clip-rule="evenodd" d="M1213.59 7169.72C974.178 7218.1 758.033 6877.51 643.078 6174.63C550.631 5609.37 540.467 4912.78 598.645 4233.55C598.645 4233.55 409.768 179.872 1155.46 3569.58C1901.16 6959.28 1482.52 1654.39 1482.52 1654.39C1728.18 1587.53 1951.32 1927.47 2068.79 2645.74C2206.34 3486.82 2161.72 4618.69 1980.85 5551.49L1597.22 6360.6L1213.59 7169.72Z" fill="url(#paint1_radial_831_36365)"/>
<path d="M1007.98 2282.67C803.68 2788.35 661.402 3500.85 598.645 4233.55C598.645 4233.55 409.768 179.872 1155.46 3569.58C1901.16 6959.28 1482.52 1654.39 1482.52 1654.39C1326.32 1696.9 1161.01 1903.89 1007.98 2282.67Z" fill="url(#paint2_linear_831_36365)"/>
<path d="M1007.98 2282.67C803.68 2788.35 661.402 3500.85 598.645 4233.55C598.645 4233.55 409.768 179.872 1155.46 3569.58C1901.16 6959.28 1482.52 1654.39 1482.52 1654.39C1326.32 1696.9 1161.01 1903.89 1007.98 2282.67Z" fill="url(#paint3_radial_831_36365)"/>
<path d="M1213.59 7169.72C1374.39 7137.22 1545.7 6929.24 1703.88 6537.7C1815.77 6260.77 1909.05 5921.82 1980.85 5551.49L1597.22 6360.6L1213.59 7169.72Z" fill="url(#paint4_linear_831_36365)"/>
<path d="M1213.59 7169.72C1374.39 7137.22 1545.7 6929.24 1703.88 6537.7C1815.77 6260.77 1909.05 5921.82 1980.85 5551.49L1597.22 6360.6L1213.59 7169.72Z" fill="url(#paint5_radial_831_36365)"/>
</g>
<g filter="url(#filter1_bf_831_36365)">
<path d="M1421.46 4068.42C1518.89 3590.76 1592.11 5290.37 1531.6 4541.83C1496.97 4113.42 1094.27 3399.14 957.906 1593.55C847.891 1188.24 986.112 2195.41 907.094 1937.68C722.335 1335.07 746.361 1429.51 540.227 1308.38C334.093 1187.24 156.049 1358.47 43.3208 1786.26C-69.4072 2214.05 -108.091 2865.28 -64.6434 3603.8C-21.1955 4342.31 101.021 5110.92 276.452 5748.93C451.883 6386.94 666.946 6844.95 876.676 7027.21C1086.41 7209.46 1274.56 7101.84 1401.81 6726.84L741.821 4192.14L1421.46 4068.42Z" fill="url(#paint6_radial_831_36365)"/>
</g>
<g style="mix-blend-mode:screen" filter="url(#filter2_bf_831_36365)">
<path d="M882.623 2218.8C678.03 601.123 -375.89 2527.86 409.048 390.095C468.304 -258.756 719.015 -671.992 1120.52 -117.069C1522.02 437.855 1799.46 1413.71 1740.21 2062.56C1555.16 1545.82 1284.12 2773.73 882.623 2218.8Z" fill="url(#paint7_linear_831_36365)"/>
<path d="M882.623 2218.8C678.03 601.123 -375.89 2527.86 409.048 390.095C468.304 -258.756 719.015 -671.992 1120.52 -117.069C1522.02 437.855 1799.46 1413.71 1740.21 2062.56C1555.16 1545.82 1284.12 2773.73 882.623 2218.8Z" fill="url(#paint8_radial_831_36365)"/>
</g>
<g style="mix-blend-mode:color-dodge" opacity="0.4" filter="url(#filter3_bf_831_36365)">
<path d="M1421.37 1002.98C1421.37 652.331 1298.85 315.255 1079.43 62.2296C860.004 -190.796 560.666 -340.18 243.998 -354.689C-72.6688 -369.198 -382.147 -247.709 -619.729 -15.6231C-857.312 216.463 -1004.6 541.177 -1030.81 890.627C-1057.02 1240.08 -960.107 1587.21 -760.344 1859.44C-560.582 2131.67 -273.432 2307.93 41.066 2351.35C355.565 2394.78 673.062 2302.02 927.176 2092.46C1181.29 1882.91 1352.35 1572.78 1404.58 1226.92L193.178 1002.98L1421.37 1002.98Z" fill="url(#paint9_linear_831_36365)"/>
</g>
</g>
<defs>
<filter id="filter0_bf_831_36365" x="424.78" y="1508.4" width="1862.3" height="5803.56" filterUnits="userSpaceOnUse" color-interpolation-filters="sRGB">
<feFlood flood-opacity="0" result="BackgroundImageFix"/>
<feGaussianBlur in="BackgroundImageFix" stdDeviation="68.8657"/>
<feComposite in2="SourceAlpha" operator="in" result="effect1_backgroundBlur_831_36365"/>
<feBlend mode="normal" in="SourceGraphic" in2="effect1_backgroundBlur_831_36365" result="shape"/>
<feGaussianBlur stdDeviation="68.8657" result="effect2_foregroundBlur_831_36365"/>
</filter>
<filter id="filter1_bf_831_36365" x="-219.766" y="1132.68" width="1911.12" height="6118.91" filterUnits="userSpaceOnUse" color-interpolation-filters="sRGB">
<feFlood flood-opacity="0" result="BackgroundImageFix"/>
<feGaussianBlur in="BackgroundImageFix" stdDeviation="68.8658"/>
<feComposite in2="SourceAlpha" operator="in" result="effect1_backgroundBlur_831_36365"/>
<feBlend mode="normal" in="SourceGraphic" in2="effect1_backgroundBlur_831_36365" result="shape"/>
<feGaussianBlur stdDeviation="68.8658" result="effect2_foregroundBlur_831_36365"/>
</filter>
<filter id="filter2_bf_831_36365" x="-91.6035" y="-590.49" width="2053.78" height="3170.73" filterUnits="userSpaceOnUse" color-interpolation-filters="sRGB">
<feFlood flood-opacity="0" result="BackgroundImageFix"/>
<feGaussianBlur in="BackgroundImageFix" stdDeviation="68.8657"/>
<feComposite in2="SourceAlpha" operator="in" result="effect1_backgroundBlur_831_36365"/>
<feBlend mode="normal" in="SourceGraphic" in2="effect1_backgroundBlur_831_36365" result="shape"/>
<feGaussianBlur stdDeviation="107" result="effect2_foregroundBlur_831_36365"/>
</filter>
<filter id="filter3_bf_831_36365" x="-1172.75" y="-493.585" width="2731.85" height="2993.14" filterUnits="userSpaceOnUse" color-interpolation-filters="sRGB">
<feFlood flood-opacity="0" result="BackgroundImageFix"/>
<feGaussianBlur in="BackgroundImageFix" stdDeviation="68.8657"/>
<feComposite in2="SourceAlpha" operator="in" result="effect1_backgroundBlur_831_36365"/>
<feBlend mode="normal" in="SourceGraphic" in2="effect1_backgroundBlur_831_36365" result="shape"/>
<feGaussianBlur stdDeviation="68.8657" result="effect2_foregroundBlur_831_36365"/>
</filter>
<linearGradient id="paint0_linear_831_36365" x1="2068.79" y1="2645.75" x2="118.113" y2="2964.78" gradientUnits="userSpaceOnUse">
<stop stop-color="white"/>
<stop offset="1" stop-color="white" stop-opacity="0"/>
</linearGradient>
<radialGradient id="paint1_radial_831_36365" cx="0" cy="0" r="1" gradientUnits="userSpaceOnUse" gradientTransform="translate(1355.93 4410.18) rotate(111.999) scale(2054.12 1208.48)">
<stop offset="0.0619708" stop-color="#EBFFEE"/>
<stop offset="1" stop-color="#BCFFC9"/>
</radialGradient>
<linearGradient id="paint2_linear_831_36365" x1="2068.79" y1="2645.75" x2="118.113" y2="2964.78" gradientUnits="userSpaceOnUse">
<stop stop-color="white"/>
<stop offset="1" stop-color="white" stop-opacity="0"/>
</linearGradient>
<radialGradient id="paint3_radial_831_36365" cx="0" cy="0" r="1" gradientUnits="userSpaceOnUse" gradientTransform="translate(1355.93 4410.18) rotate(111.999) scale(2054.12 1208.48)">
<stop offset="0.0619708" stop-color="#EBFFEE"/>
<stop offset="1" stop-color="#BCFFC9"/>
</radialGradient>
<linearGradient id="paint4_linear_831_36365" x1="2068.79" y1="2645.75" x2="118.113" y2="2964.78" gradientUnits="userSpaceOnUse">
<stop stop-color="white"/>
<stop offset="1" stop-color="white" stop-opacity="0"/>
</linearGradient>
<radialGradient id="paint5_radial_831_36365" cx="0" cy="0" r="1" gradientUnits="userSpaceOnUse" gradientTransform="translate(1355.93 4410.18) rotate(111.999) scale(2054.12 1208.48)">
<stop offset="0.0619708" stop-color="#EBFFEE"/>
<stop offset="1" stop-color="#BCFFC9"/>
</radialGradient>
<radialGradient id="paint6_radial_831_36365" cx="0" cy="0" r="1" gradientUnits="userSpaceOnUse" gradientTransform="translate(741.821 4192.14) rotate(101.53) scale(1889.14 1150.33)">
<stop offset="0.1875" stop-color="white"/>
<stop offset="0.942708" stop-color="white"/>
</radialGradient>
<linearGradient id="paint7_linear_831_36365" x1="1740.21" y1="2062.56" x2="116.266" y2="1914.25" gradientUnits="userSpaceOnUse">
<stop stop-color="#F4F4F4"/>
<stop offset="0.0001" stop-opacity="0.864583"/>
<stop offset="1" stop-color="white" stop-opacity="0"/>
</linearGradient>
<radialGradient id="paint8_radial_831_36365" cx="0" cy="0" r="1" gradientUnits="userSpaceOnUse" gradientTransform="translate(1013.22 1057.78) rotate(-125.887) scale(1338.68 837.196)">
<stop offset="0.192708" stop-color="#ADF9BA"/>
<stop offset="0.53125" stop-color="white"/>
<stop offset="1" stop-color="#EFE5C3"/>
</radialGradient>
<linearGradient id="paint9_linear_831_36365" x1="193.178" y1="-355.853" x2="193.178" y2="2361.82" gradientUnits="userSpaceOnUse">
<stop stop-color="#C4FFC9" stop-opacity="0.5"/>
<stop offset="1" stop-color="white" stop-opacity="0"/>
</linearGradient>
<clipPath id="clip0_831_36365">
<rect width="1440" height="5602" fill="white"/>
</clipPath>
</defs>
</svg>
