<svg width="22" height="22" viewBox="0 0 22 22" fill="none" xmlns="http://www.w3.org/2000/svg">
<path d="M18.3617 19.0576C18.7834 19.4792 19.4342 18.8284 19.0126 18.4159L15.5751 14.9692C16.7809 13.635 17.4474 11.9001 17.4451 10.1017C17.4451 6.07755 14.1726 2.80505 10.1484 2.80505C6.12425 2.80505 2.85175 6.07755 2.85175 10.1017C2.85175 14.1259 6.12425 17.3984 10.1484 17.3984C11.9634 17.3984 13.6409 16.7292 14.9242 15.6201L18.3617 19.0576ZM3.7675 10.1017C3.7675 6.58172 6.63666 3.72172 10.1475 3.72172C13.6675 3.72172 16.5275 6.58172 16.5275 10.1017C16.5275 13.6217 13.6675 16.4817 10.1475 16.4817C6.63666 16.4817 3.7675 13.6217 3.7675 10.1017Z" fill="#01390C"/>
</svg>
