<svg width="24" height="22" viewBox="0 0 24 22" fill="none" xmlns="http://www.w3.org/2000/svg">
<path d="M0.75 13.8501C0.948912 13.8501 1.13968 13.9291 1.28033 14.0698C1.42098 14.2104 1.5 14.4012 1.5 14.6001V18.3501C1.5 18.7479 1.65804 19.1295 1.93934 19.4108C2.22064 19.6921 2.60218 19.8501 3 19.8501H21C21.3978 19.8501 21.7794 19.6921 22.0607 19.4108C22.342 19.1295 22.5 18.7479 22.5 18.3501V14.6001C22.5 14.4012 22.579 14.2104 22.7197 14.0698C22.8603 13.9291 23.0511 13.8501 23.25 13.8501C23.4489 13.8501 23.6397 13.9291 23.7803 14.0698C23.921 14.2104 24 14.4012 24 14.6001V18.3501C24 19.1457 23.6839 19.9088 23.1213 20.4714C22.5587 21.034 21.7956 21.3501 21 21.3501H3C2.20435 21.3501 1.44129 21.034 0.87868 20.4714C0.316071 19.9088 0 19.1457 0 18.3501V14.6001C0 14.4012 0.0790176 14.2104 0.21967 14.0698C0.360322 13.9291 0.551088 13.8501 0.75 13.8501Z" fill="#070707"/>
<path d="M11.4699 0.718876C11.5396 0.649031 11.6224 0.593617 11.7135 0.555807C11.8046 0.517997 11.9023 0.498535 12.0009 0.498535C12.0996 0.498535 12.1973 0.517997 12.2884 0.555807C12.3795 0.593617 12.4623 0.649031 12.5319 0.718876L17.0319 5.21888C17.1728 5.35971 17.2519 5.55071 17.2519 5.74988C17.2519 5.94904 17.1728 6.14005 17.0319 6.28088C16.8911 6.42171 16.7001 6.50082 16.5009 6.50082C16.3018 6.50082 16.1108 6.42171 15.9699 6.28088L12.7509 3.06038V16.2499C12.7509 16.4488 12.6719 16.6396 12.5313 16.7802C12.3906 16.9209 12.1999 16.9999 12.0009 16.9999C11.802 16.9999 11.6113 16.9209 11.4706 16.7802C11.33 16.6396 11.2509 16.4488 11.2509 16.2499V3.06038L8.03195 6.28088C7.96222 6.35061 7.87943 6.40592 7.78832 6.44366C7.69721 6.4814 7.59956 6.50082 7.50095 6.50082C7.40233 6.50082 7.30468 6.4814 7.21357 6.44366C7.12246 6.40592 7.03968 6.35061 6.96995 6.28088C6.90022 6.21114 6.8449 6.12836 6.80716 6.03725C6.76942 5.94614 6.75 5.84849 6.75 5.74988C6.75 5.65126 6.76942 5.55361 6.80716 5.4625C6.8449 5.37139 6.90022 5.28861 6.96995 5.21888L11.4699 0.718876Z" fill="#070707"/>
</svg>
