<svg viewBox="0 0 30 30" fill="none" xmlns="http://www.w3.org/2000/svg">
<path d="M15 14.9293C14.0753 14.9293 13.1714 14.6551 12.4025 14.1413C11.6337 13.6276 11.0344 12.8974 10.6806 12.0431C10.3267 11.1888 10.2341 10.2488 10.4145 9.34183C10.5949 8.43491 11.0402 7.60184 11.6941 6.94799C12.3479 6.29413 13.181 5.84885 14.0879 5.66845C14.9948 5.48805 15.9349 5.58064 16.7892 5.9345C17.6435 6.28837 18.3737 6.88762 18.8874 7.65647C19.4011 8.42532 19.6753 9.32925 19.6753 10.2539C19.674 11.4935 19.1809 12.6819 18.3044 13.5584C17.4279 14.4349 16.2396 14.9279 15 14.9293ZM15 6.87732C14.3322 6.87732 13.6793 7.07535 13.1241 7.44638C12.5688 7.81741 12.136 8.34477 11.8804 8.96176C11.6248 9.57876 11.558 10.2577 11.6883 10.9127C11.8185 11.5677 12.1401 12.1693 12.6124 12.6416C13.0846 13.1138 13.6863 13.4354 14.3413 13.5657C14.9963 13.696 15.6752 13.6291 16.2922 13.3735C16.9092 13.118 17.4365 12.6852 17.8076 12.1299C18.1786 11.5746 18.3766 10.9218 18.3766 10.2539C18.3756 9.35872 18.0195 8.50046 17.3865 7.86745C16.7535 7.23443 15.8952 6.87835 15 6.87732Z" fill="black"/>
<path d="M23.1169 24.4217C22.9447 24.4217 22.7795 24.3533 22.6577 24.2315C22.5359 24.1097 22.4675 23.9445 22.4675 23.7723V22.1671C22.4661 20.9341 21.9757 19.752 21.1039 18.8801C20.232 18.0083 19.0499 17.5178 17.8169 17.5165H12.1831C10.9501 17.5178 9.76799 18.0083 8.89613 18.8801C8.02426 19.752 7.53384 20.9341 7.53247 22.1671V23.7723C7.53247 23.9445 7.46405 24.1097 7.34228 24.2315C7.2205 24.3533 7.05533 24.4217 6.88311 24.4217C6.7109 24.4217 6.54573 24.3533 6.42395 24.2315C6.30218 24.1097 6.23376 23.9445 6.23376 23.7723V22.1671C6.23565 20.5898 6.86307 19.0777 7.97838 17.9624C9.09369 16.8471 10.6058 16.2197 12.1831 16.2178H17.8162C19.3936 16.2195 20.9059 16.8468 22.0214 17.9622C23.1368 19.0775 23.7643 20.5897 23.7662 22.1671V23.7723C23.7662 23.9445 23.6978 24.1097 23.576 24.2315C23.4543 24.3533 23.2891 24.4217 23.1169 24.4217Z" fill="black"/>
</svg>
