<?xml version="1.0" encoding="utf-8"?>
<!-- Generator: Adobe Illustrator 23.0.0, SVG Export Plug-In . SVG Version: 6.00 Build 0)  -->
<svg version="1.1" id="Layer_1" xmlns="http://www.w3.org/2000/svg" xmlns:xlink="http://www.w3.org/1999/xlink" x="0px" y="0px"
	 viewBox="0 0 63.3 74.8" style="enable-background:new 0 0 63.3 74.8;" xml:space="preserve">
<style type="text/css">
	.st0{fill:#FFFFFF;}
</style>
<path class="st0" d="M63.3,37.4c0,1-0.2,1.9-0.7,2.8s-1.2,1.6-2,2.1L8.7,73.9c-0.9,0.5-1.9,0.8-2.9,0.8c-1,0-2-0.2-2.9-0.7
	c-0.9-0.5-1.6-1.2-2.1-2.1C0.3,71.1,0,70.1,0,69V5.7c0-1,0.3-2,0.8-2.9C1.3,2,2,1.2,2.9,0.7C3.8,0.2,4.8,0,5.8,0c1,0,2,0.3,2.9,0.8
	l51.8,31.7c0.8,0.5,1.5,1.2,2,2.1S63.3,36.4,63.3,37.4z"/>
</svg>
